<?xml version="1.0" encoding="utf-8"?>
<!-- Generator: Adobe Illustrator 27.0.1, SVG Export Plug-In . SVG Version: 6.00 Build 0)  -->
<svg version="1.1" id="Camada_1" xmlns="http://www.w3.org/2000/svg" xmlns:xlink="http://www.w3.org/1999/xlink" x="0px" y="0px"
	 viewBox="0 0 1000 136.23" style="enable-background:new 0 0 1000 136.23;" xml:space="preserve">
<style type="text/css">
	.st0{fill:#222222;}
</style>
<g>
	<g>
		<polygon class="st0" points="853.24,131.98 746.03,131.98 746.03,115.12 830.57,21.11 746.03,21.11 746.03,4.25 853.24,4.25
			853.24,21.11 768.8,115.12 853.24,115.12 		"/>
	</g>
	<g>
		<polygon class="st0" points="660.91,131.93 592.73,131.93 592.73,4.3 609.59,4.3 609.59,115.07 660.91,115.07 		"/>
	</g>
	<polygon class="st0" points="584.3,21.13 584.3,4.27 516.05,4.27 516.05,131.96 584.3,131.96 584.3,115.1 532.91,115.1
		532.91,76.55 584.3,76.55 584.3,59.68 532.91,59.68 532.91,21.13 	"/>
	<polygon class="st0" points="737.6,21.13 737.6,4.27 669.34,4.27 669.34,131.96 737.6,131.96 737.6,115.1 686.21,115.1
		686.21,76.55 737.6,76.55 737.6,59.68 686.21,59.68 686.21,21.13 	"/>
	<g>
		<polygon class="st0" points="18.86,131.94 0,131.94 63.94,4.29 74.4,4.29 138.33,131.94 119.47,131.94 69.17,31.5 		"/>
	</g>
	<g>
		<polygon class="st0" points="880.53,131.94 861.67,131.94 925.61,4.29 936.07,4.29 1000,131.94 981.14,131.94 930.84,31.5 		"/>
	</g>
	<g>
		<polygon class="st0" points="263.21,131.89 246.35,131.89 246.35,35.99 204.98,85.62 163.62,35.99 163.62,131.89 146.76,131.89
			146.76,4.35 159.21,4.35 204.98,59.28 250.76,4.35 263.21,4.35 		"/>
	</g>
	<path class="st0" d="M489.22,64.35c5.66-6.38,9.1-14.78,9.1-23.96c0-19.94-16.22-36.16-36.16-36.16h-45.83V132h55.12
		c19.94,0,36.16-16.22,36.16-36.16C507.61,82.35,500.19,70.57,489.22,64.35z M433.2,21.1h28.96c10.64,0,19.29,8.66,19.29,19.29
		c0,10.64-8.66,19.29-19.29,19.29H433.2V21.1z M471.46,115.13H433.2V76.55h38.26c10.64,0,19.29,8.65,19.29,19.29
		S482.1,115.13,471.46,115.13z"/>
	<path class="st0" d="M407.87,68.12C407.87,30.56,377.32,0,339.76,0s-68.12,30.56-68.12,68.12s30.56,68.12,68.12,68.12
		S407.87,105.68,407.87,68.12z M288.5,68.12c0-28.26,22.99-51.25,51.25-51.25c28.26,0,51.25,22.99,51.25,51.25
		s-22.99,51.25-51.25,51.25C311.49,119.37,288.5,96.38,288.5,68.12z"/>
</g>
</svg>
